<svg width="50" height="46" viewBox="0 0 50 46" fill="none" xmlns="http://www.w3.org/2000/svg">
<path d="M44.7461 33.9289H13.4772C13.2178 33.9289 12.9928 33.7495 12.9356 33.4967L8.07833 12.1633C7.58667 10.0028 5.69556 8.49446 3.48 8.49446H0.555556C0.248889 8.49446 0 8.24557 0 7.9389C0 7.63224 0.248889 7.38335 0.555556 7.38335H3.48C6.21722 7.38335 8.55389 9.24724 9.16167 11.9167L13.92 32.8183H44.3022L48.7478 13.2939H21.6178C21.3111 13.2939 21.0622 13.045 21.0622 12.7383C21.0622 12.4317 21.3111 12.1828 21.6178 12.1828H49.4444C49.6139 12.1828 49.7733 12.26 49.8783 12.3917C49.9839 12.5239 50.0239 12.6967 49.9856 12.8617L45.2872 33.4967C45.23 33.7495 45.0056 33.9289 44.7461 33.9289Z" fill="black"/>
<path d="M10.7989 41.5922C8.38 41.5922 6.41167 39.6245 6.41167 37.2056C6.41167 34.7867 8.37944 32.8183 10.7989 32.8183H44.7111C45.0183 32.8183 45.2667 33.0667 45.2667 33.3739C45.2667 33.6811 45.0183 33.9295 44.7111 33.9295H10.7989C8.99278 33.9295 7.52278 35.3995 7.52278 37.2056C7.52278 39.0117 8.99278 40.4811 10.7989 40.4811C11.1056 40.4811 11.3544 40.7295 11.3544 41.0367C11.3544 41.3439 11.1056 41.5922 10.7989 41.5922Z" fill="black"/>
<path d="M40.7911 45.1161C38.5422 45.1161 36.7122 43.2861 36.7122 41.0367C36.7122 38.7872 38.5422 36.9572 40.7911 36.9572C43.0406 36.9572 44.8706 38.7872 44.8706 41.0367C44.8706 43.2861 43.0406 45.1161 40.7911 45.1161ZM40.7911 38.0683C39.155 38.0683 37.8233 39.3995 37.8233 41.0367C37.8233 42.6739 39.1544 44.005 40.7911 44.005C42.4278 44.005 43.7594 42.6739 43.7594 41.0367C43.7594 39.3995 42.4278 38.0683 40.7911 38.0683Z" fill="black"/>
<path d="M18.8661 45.1161C16.6172 45.1161 14.7872 43.2861 14.7872 41.0367C14.7872 38.7872 16.6172 36.9572 18.8661 36.9572C21.1156 36.9572 22.9456 38.7872 22.9456 41.0367C22.9456 43.2861 21.1156 45.1161 18.8661 45.1161ZM18.8661 38.0683C17.2294 38.0683 15.8983 39.3995 15.8983 41.0367C15.8983 42.6739 17.2294 44.005 18.8661 44.005C20.5028 44.005 21.8344 42.6739 21.8344 41.0367C21.8344 39.3995 20.5028 38.0683 18.8661 38.0683Z" fill="black"/>
<path d="M32.2694 41.5922H22.39C22.0833 41.5922 21.8344 41.3439 21.8344 41.0367C21.8344 40.7294 22.0833 40.4811 22.39 40.4811H32.2694C32.5767 40.4811 32.825 40.7294 32.825 41.0367C32.825 41.3439 32.5767 41.5922 32.2694 41.5922Z" fill="black"/>
<path d="M44.7106 13.2933H30.0161C29.7089 13.2933 29.4606 13.0444 29.4606 12.7378V5.06222C29.4606 4.75556 29.7089 4.50667 30.0161 4.50667H44.7106C45.0178 4.50667 45.2661 4.75556 45.2661 5.06222V12.7378C45.2661 13.045 45.0178 13.2933 44.7106 13.2933ZM30.5717 12.1822H44.155V5.61778H30.5717V12.1822Z" fill="black"/>
<path d="M15.4506 13.2933C15.1439 13.2933 14.895 13.0445 14.895 12.7378V1.43945C14.895 1.13278 15.1439 0.883896 15.4506 0.883896H34.7311C35.0383 0.883896 35.2867 1.13278 35.2867 1.43945V5.06223C35.2867 5.3689 35.0383 5.61778 34.7311 5.61778C34.4239 5.61778 34.1756 5.3689 34.1756 5.06223V1.99501H16.0061V12.7378C16.0061 13.045 15.7572 13.2933 15.4506 13.2933Z" fill="black"/>
<path d="M32.8111 29.7817C32.7228 29.7817 32.6339 29.7606 32.5522 29.7178L28.8889 27.7917L25.225 29.7178C25.0383 29.8167 24.8111 29.8006 24.64 29.6756C24.4689 29.5511 24.3833 29.3406 24.4189 29.1322L25.1183 25.0522L22.155 22.1633C22.0039 22.0156 21.9489 21.795 22.0144 21.5939C22.08 21.3928 22.2539 21.2461 22.4628 21.2156L26.5589 20.6206L28.3911 16.9089C28.5778 16.5295 29.2006 16.5295 29.3872 16.9089L31.2194 20.6206L35.315 21.2156C35.5244 21.2461 35.6978 21.3928 35.7639 21.5939C35.8289 21.795 35.775 22.0156 35.6233 22.1633L32.6594 25.0522L33.3589 29.1322C33.3944 29.3406 33.3089 29.5511 33.1383 29.6756C33.0406 29.7461 32.9261 29.7817 32.8111 29.7817ZM23.7367 22.1539L26.1033 24.4611C26.2339 24.5883 26.2939 24.7728 26.2628 24.9528L25.7039 28.2106L28.63 26.6722C28.7928 26.5867 28.985 26.5867 29.1478 26.6722L32.0733 28.2106L31.515 24.9528C31.4839 24.7728 31.5439 24.5889 31.6744 24.4611L34.0417 22.1539L30.7706 21.6789C30.5894 21.6528 30.4333 21.5389 30.3522 21.375L28.8889 18.41L27.4256 21.3739C27.3444 21.5378 27.1883 21.6517 27.0072 21.6778L23.7367 22.1539Z" fill="black"/>
</svg>
