<svg width="58" height="58" viewBox="0 0 58 58" fill="none" xmlns="http://www.w3.org/2000/svg">
<path fill-rule="evenodd" clip-rule="evenodd" d="M23.5 6.55078C32.8888 6.55078 40.5 14.1619 40.5 23.5508C40.5 32.9396 32.8888 40.5508 23.5 40.5508C14.1111 40.5508 6.49997 32.9396 6.49997 23.5508C6.49997 14.1619 14.1111 6.55078 23.5 6.55078ZM42.3452 36.7397C44.9634 33.0056 46.5 28.4576 46.5 23.5508C46.5 10.8482 36.2025 0.550781 23.5 0.550781C10.7974 0.550781 0.499969 10.8482 0.499969 23.5508C0.499969 36.2533 10.7974 46.5508 23.5 46.5508C28.4068 46.5508 32.9548 45.0142 36.6889 42.396L50.6718 56.3789C52.2339 57.941 54.766 57.941 56.3281 56.3789C57.8902 54.8168 57.8902 52.2848 56.3281 50.7227L42.3452 36.7397Z" fill="black"/>
</svg>
